<svg xmlns="http://www.w3.org/2000/svg" width="431.32" height="375.87"><defs><style>.a,.g{fill:#1d1d26;}.b{fill:#161616;}.c,.d{fill:#fff;}.d,.g,.h,.i{fill-rule:evenodd;}.e{fill:#6c6c72;}.f{fill:#77777d;}.h{fill:#2f2f37;}.i{fill:#191414;}.j{fill:#1ed760;}</style></defs><rect class="a" x="23.52" y="20.33" width="386.62" height="820.56"/><path class="b" d="M357.49,862.67H239.16c-.39-.24-.77-.63-1.18-.68a56.4,56.4,0,0,0-5.79-.44q-16.56-.06-33.1,0a56.18,56.18,0,0,0-5.79.44c-.4,0-.76.44-1.14.68H74.49a10.85,10.85,0,0,0-1.95-.58c-5.84-.62-11.74-.92-17.53-1.84a60.46,60.46,0,0,1-29.43-13.12c-11.2-9.24-17.77-21.22-20.74-35.29a130.89,130.89,0,0,1-2.33-27.16V322.23a3.84,3.84,0,0,1,0-.83c.43-2-.67-2.66-2.36-2.87v-61a8.61,8.61,0,0,0,1.55-.93,2.24,2.24,0,0,0,.8-1.32c.05-4-.14-8.06.06-12.08.11-2-.4-3.23-2.41-3.67v-61c.86-.58,2.41-.27,2.4-2q0-9.57-.05-19.14v-7.84L.16,148.6V116.94l2.35-1c0-13.18,0-26.45,0-39.71A123.55,123.55,0,0,1,5.2,48.75,60.93,60.93,0,0,1,19.62,20.67,60.39,60.39,0,0,1,49.74,3c9.1-2.36,18.4-3,27.74-3Q215,0,352.6,0a125.46,125.46,0,0,1,24.69,2c13.21,2.63,24.72,8.38,34,18.29,9.49,10.13,14.48,22.39,16.12,36a193.75,193.75,0,0,1,1.26,22.59c.12,38.48.06,77,.06,115.44v4l2.77,1.25v98l-2.77,1.06V610.06q0,86.72,0,173.43c0,9.44-.29,18.87-2.24,28.17-2.45,11.72-7.42,22.16-15.75,30.83a59.32,59.32,0,0,1-27.29,16.17,103.36,103.36,0,0,1-23.85,3.4A9.1,9.1,0,0,0,357.49,862.67Zm45.69-429.9V230.85q0-79.8,0-159.6c0-7.24-.47-14.45-3-21.33a35.23,35.23,0,0,0-21-21.6c-7-2.77-14.38-3.21-21.77-3.32-9.83-.16-19.66-.05-29.5,0a17.49,17.49,0,0,0-3,.3,5,5,0,0,0-4.49,4.81c-.15,1.38-.21,2.77-.33,4.15a22.15,22.15,0,0,1-5.42,13.31C310,52.84,304,55,297,55q-81.42,0-162.83,0a27.85,27.85,0,0,1-4.65-.36q-12.11-2-16.9-13.4c-1.35-3.21-1.41-6.59-1.71-10-.38-4.3-2-5.88-6.26-6.22-.44,0-.89,0-1.33,0-9.84,0-19.67-.1-29.5,0-6,.08-12,.36-17.83,2C43.62,30.55,35.13,38.3,30.87,50.53c-2.33,6.7-2.72,13.69-2.72,20.7q0,195.51,0,391,0,164.43,0,328.87c0,6.79.44,13.55,2.69,20C35,823.26,43.38,831,55.64,834.62c6.58,1.92,13.37,2.06,20.15,2.07q136.74,0,273.49,0c5.39,0,10.78-.08,16.16-.37,8-.43,15.55-2.58,22.1-7.38,9.27-6.8,13.89-16.28,14.93-27.49.57-6.18.68-12.42.68-18.63Q403.21,607.79,403.18,432.77Z"/><path class="c" d="M60.06,44.26h-.13L57.3,46.12V44.34l2.76-1.94H62V53H60.06Z"/><path class="c" d="M67.2,44.26h-.13l-2.63,1.86V44.34l2.77-1.94h1.88V53H67.2Z"/><path class="c" d="M72,45a1.17,1.17,0,0,1,2.34,0A1.17,1.17,0,0,1,72,45Zm0,5.37a1.17,1.17,0,1,1,1.17,1.14A1.11,1.11,0,0,1,72,50.36Z"/><path class="c" d="M76.65,50.05h1.77a1.89,1.89,0,0,0,2,1.64,2,2,0,0,0,2-2.16,1.94,1.94,0,0,0-2-2.1,2.09,2.09,0,0,0-2,1.11H76.81l.58-6.14h6.33V44H78.86L78.57,47h.12A2.7,2.7,0,0,1,81,46a3.27,3.27,0,0,1,3.28,3.48,3.6,3.6,0,0,1-3.86,3.73C78.25,53.23,76.74,51.9,76.65,50.05Z"/><path class="c" d="M85.82,47.8c0-3.56,1.65-5.67,4.27-5.67A3.48,3.48,0,0,1,93.83,45H91.94a1.7,1.7,0,0,0-1.81-1.31c-1.57,0-2.48,1.37-2.5,3.9h.13A2.91,2.91,0,0,1,90.5,46,3.39,3.39,0,0,1,94,49.51a3.67,3.67,0,0,1-3.93,3.71C87.6,53.22,85.82,51.42,85.82,47.8Zm6.3,1.77a2.09,2.09,0,1,0-4.17,0,2.09,2.09,0,1,0,4.17,0Z"/><path class="c" d="M343.66,45.49a.31.31,0,0,1,0-.41,9.75,9.75,0,0,1,14.39,0,.29.29,0,0,1,0,.41l-.85.86a.31.31,0,0,1-.46,0,8.12,8.12,0,0,0-11.7,0,.32.32,0,0,1-.47,0ZM346.17,48a.28.28,0,0,1,0-.4,6.41,6.41,0,0,1,9.38,0,.28.28,0,0,1,0,.4l-1,1a.29.29,0,0,1-.46,0,4.48,4.48,0,0,0-3.23-1.44A4.43,4.43,0,0,0,347.62,49a.32.32,0,0,1-.49,0Zm4.14,4.09-1.53-1.46a.27.27,0,0,1-.06-.36,2.67,2.67,0,0,1,2.12-1,2.72,2.72,0,0,1,2.08,1,.3.3,0,0,1,0,.41l-1.52,1.46c-.25.24-.38.32-.52.32S350.55,52.35,350.31,52.11Z"/><path class="d" d="M323.16,49h-1a1,1,0,0,0-1,1v2a1,1,0,0,0,1,1h1a1,1,0,0,0,1-1V50A1,1,0,0,0,323.16,49Zm4.67-2h-1a1,1,0,0,0-1,1v4a1,1,0,0,0,1,1h1a1,1,0,0,0,1-1V48A1,1,0,0,0,327.83,47Zm4.66-2.34h-1a1,1,0,0,0-1,1V52a1,1,0,0,0,1,1h1a1,1,0,0,0,1-1V45.66A1,1,0,0,0,332.49,44.66Zm4.67-2.33h-1a1,1,0,0,0-1,1V52a1,1,0,0,0,1,1h1a1,1,0,0,0,1-1V43.33A1,1,0,0,0,337.16,42.33Z"/><rect class="e" x="363.49" y="42" width="22" height="11.33" rx="2.67"/><path class="f" d="M386.49,45.67v4a2.17,2.17,0,0,0,0-4"/><path class="g" d="M366,43h17a1.6,1.6,0,0,1,1.48,1.69v5.94a1.6,1.6,0,0,1-1.48,1.7H366a1.61,1.61,0,0,1-1.48-1.7V44.69A1.6,1.6,0,0,1,366,43Z"/><rect class="c" x="365.49" y="44" width="18" height="7.33" rx="1.33"/><path class="h" d="M202.16,115.43v-2.15c0-.6,0-1.2,0-1.81a26.1,26.1,0,0,0-.35-3.94,13.1,13.1,0,0,0-1.23-3.75,13,13,0,0,0-2.32-3.19A12.57,12.57,0,0,0,195,98.28,13.44,13.44,0,0,0,191.29,97a27.34,27.34,0,0,0-3.94-.35l-1.81,0H158.78l-1.81,0A27.34,27.34,0,0,0,153,97a13.44,13.44,0,0,0-3.75,1.24,12.75,12.75,0,0,0-3.19,2.31,13,13,0,0,0-2.32,3.19,13.1,13.1,0,0,0-1.23,3.75,26.1,26.1,0,0,0-.35,3.94c0,.61,0,1.21,0,1.81V140c0,.61,0,1.21,0,1.81a26.12,26.12,0,0,0,.35,4,13,13,0,0,0,1.23,3.74,12.65,12.65,0,0,0,5.51,5.51,13.44,13.44,0,0,0,3.75,1.24,26,26,0,0,0,3.94.34c.6,0,1.21,0,1.81,0h26.76c.6,0,1.21,0,1.81,0a26,26,0,0,0,3.94-.34,13.44,13.44,0,0,0,3.75-1.24,12.37,12.37,0,0,0,3.19-2.32,12.61,12.61,0,0,0,2.32-3.19,13,13,0,0,0,1.23-3.74,26.12,26.12,0,0,0,.35-4c0-.6,0-1.2,0-1.81V115.43Z"/><path class="i" d="M115.16,115.43v-2.15c0-.6,0-1.2,0-1.81a26.1,26.1,0,0,0-.35-3.94,13.1,13.1,0,0,0-1.23-3.75,13,13,0,0,0-2.32-3.19A12.57,12.57,0,0,0,108,98.28,13.44,13.44,0,0,0,104.29,97a27.34,27.34,0,0,0-3.94-.35l-1.81,0H71.78l-1.81,0A27.34,27.34,0,0,0,66,97a13.44,13.44,0,0,0-3.75,1.24,12.75,12.75,0,0,0-3.19,2.31,13,13,0,0,0-2.32,3.19,13.42,13.42,0,0,0-1.23,3.75,26.1,26.1,0,0,0-.35,3.94l0,1.81V140l0,1.81a26.12,26.12,0,0,0,.35,4,13.36,13.36,0,0,0,1.23,3.74,12.65,12.65,0,0,0,5.51,5.51A13.44,13.44,0,0,0,66,156.29a26,26,0,0,0,3.94.34c.6,0,1.21,0,1.81,0H98.54c.61,0,1.21,0,1.81,0a26,26,0,0,0,3.94-.34,13.44,13.44,0,0,0,3.75-1.24,12.37,12.37,0,0,0,3.19-2.32,12.61,12.61,0,0,0,2.32-3.19,13,13,0,0,0,1.23-3.74,26.12,26.12,0,0,0,.35-4c0-.6,0-1.2,0-1.81V115.43Z"/><path class="h" d="M289.16,115.43v-2.15c0-.6,0-1.2,0-1.81a26.1,26.1,0,0,0-.35-3.94,13.1,13.1,0,0,0-1.23-3.75,12.72,12.72,0,0,0-2.32-3.19A12.57,12.57,0,0,0,282,98.28,13.44,13.44,0,0,0,278.29,97a27.34,27.34,0,0,0-3.94-.35l-1.81,0H245.78l-1.81,0A27.34,27.34,0,0,0,240,97a13.44,13.44,0,0,0-3.75,1.24,12.75,12.75,0,0,0-3.19,2.31,13,13,0,0,0-2.32,3.19,13.42,13.42,0,0,0-1.23,3.75,27.46,27.46,0,0,0-.35,3.94c0,.61,0,1.21,0,1.81s0,1.44,0,2.15v22.46c0,.72,0,1.44,0,2.15s0,1.21,0,1.81a27.48,27.48,0,0,0,.35,4,13.36,13.36,0,0,0,1.23,3.74,12.65,12.65,0,0,0,5.51,5.51,13.44,13.44,0,0,0,3.75,1.24,26,26,0,0,0,3.94.34c.6,0,1.21,0,1.81,0h26.76c.61,0,1.21,0,1.81,0a26,26,0,0,0,3.94-.34,13.44,13.44,0,0,0,3.75-1.24,12.65,12.65,0,0,0,5.51-5.51,13,13,0,0,0,1.23-3.74,26.12,26.12,0,0,0,.35-4c0-.6,0-1.2,0-1.81V115.43Z"/><path class="h" d="M376.16,115.43v-2.15c0-.6,0-1.2,0-1.81a26.1,26.1,0,0,0-.35-3.94,13.1,13.1,0,0,0-1.23-3.75,13,13,0,0,0-2.32-3.19A12.57,12.57,0,0,0,369,98.28,13.44,13.44,0,0,0,365.29,97a27.34,27.34,0,0,0-3.94-.35l-1.81,0H332.78l-1.81,0A27.34,27.34,0,0,0,327,97a13.44,13.44,0,0,0-3.75,1.24,12.75,12.75,0,0,0-3.19,2.31,13,13,0,0,0-2.32,3.19,13.42,13.42,0,0,0-1.23,3.75,26.1,26.1,0,0,0-.35,3.94c0,.61,0,1.21,0,1.81s0,1.44,0,2.15v22.46c0,.72,0,1.44,0,2.15s0,1.21,0,1.81a26.12,26.12,0,0,0,.35,4,13.36,13.36,0,0,0,1.23,3.74,12.65,12.65,0,0,0,5.51,5.51,13.44,13.44,0,0,0,3.75,1.24,26,26,0,0,0,3.94.34c.6,0,1.21,0,1.81,0h26.76c.61,0,1.21,0,1.81,0a26,26,0,0,0,3.94-.34,13.44,13.44,0,0,0,3.75-1.24,12.37,12.37,0,0,0,3.19-2.32,12.61,12.61,0,0,0,2.32-3.19,13,13,0,0,0,1.23-3.74,26.12,26.12,0,0,0,.35-4c0-.6,0-1.2,0-1.81V115.43Z"/><path class="h" d="M115.16,217.43v-2.15c0-.6,0-1.2,0-1.81a26.1,26.1,0,0,0-.35-3.94,13.1,13.1,0,0,0-1.23-3.75,13,13,0,0,0-2.32-3.19,12.57,12.57,0,0,0-3.19-2.31,13.44,13.44,0,0,0-3.75-1.24,27.34,27.34,0,0,0-3.94-.35l-1.81,0H71.78l-1.81,0A27.34,27.34,0,0,0,66,199a13.44,13.44,0,0,0-3.75,1.24,12.75,12.75,0,0,0-3.19,2.31,13,13,0,0,0-2.32,3.19,13.42,13.42,0,0,0-1.23,3.75,26.1,26.1,0,0,0-.35,3.94l0,1.81V242l0,1.81a26.12,26.12,0,0,0,.35,4,13.36,13.36,0,0,0,1.23,3.74,12.65,12.65,0,0,0,5.51,5.51A13.44,13.44,0,0,0,66,258.29a26,26,0,0,0,3.94.34c.6,0,1.21,0,1.81,0H98.54c.61,0,1.21,0,1.81,0a26,26,0,0,0,3.94-.34,13.44,13.44,0,0,0,3.75-1.24,12.37,12.37,0,0,0,3.19-2.32,12.61,12.61,0,0,0,2.32-3.19,13,13,0,0,0,1.23-3.74,26.12,26.12,0,0,0,.35-4c0-.6,0-1.2,0-1.81V217.43Z"/><path class="h" d="M202.16,217.43v-2.15c0-.6,0-1.2,0-1.81a26.1,26.1,0,0,0-.35-3.94,13.1,13.1,0,0,0-1.23-3.75,13,13,0,0,0-2.32-3.19,12.57,12.57,0,0,0-3.19-2.31,13.44,13.44,0,0,0-3.75-1.24,27.34,27.34,0,0,0-3.94-.35l-1.81,0H158.78l-1.81,0A27.34,27.34,0,0,0,153,199a13.44,13.44,0,0,0-3.75,1.24,12.75,12.75,0,0,0-3.19,2.31,13,13,0,0,0-2.32,3.19,13.1,13.1,0,0,0-1.23,3.75,26.1,26.1,0,0,0-.35,3.94c0,.61,0,1.21,0,1.81V242c0,.61,0,1.21,0,1.81a26.12,26.12,0,0,0,.35,4,13,13,0,0,0,1.23,3.74,12.65,12.65,0,0,0,5.51,5.51,13.44,13.44,0,0,0,3.75,1.24,26,26,0,0,0,3.94.34c.6,0,1.21,0,1.81,0h26.76c.6,0,1.21,0,1.81,0a26,26,0,0,0,3.94-.34,13.44,13.44,0,0,0,3.75-1.24,12.37,12.37,0,0,0,3.19-2.32,12.61,12.61,0,0,0,2.32-3.19,13,13,0,0,0,1.23-3.74,26.12,26.12,0,0,0,.35-4c0-.6,0-1.2,0-1.81V217.43Z"/><path class="h" d="M289.16,217.43v-2.15c0-.6,0-1.2,0-1.81a26.1,26.1,0,0,0-.35-3.94,13.1,13.1,0,0,0-1.23-3.75,12.72,12.72,0,0,0-2.32-3.19,12.57,12.57,0,0,0-3.19-2.31,13.44,13.44,0,0,0-3.75-1.24,27.34,27.34,0,0,0-3.94-.35l-1.81,0H245.78l-1.81,0A27.34,27.34,0,0,0,240,199a13.44,13.44,0,0,0-3.75,1.24,12.75,12.75,0,0,0-3.19,2.31,13,13,0,0,0-2.32,3.19,13.42,13.42,0,0,0-1.23,3.75,27.46,27.46,0,0,0-.35,3.94c0,.61,0,1.21,0,1.81s0,1.44,0,2.15v22.46c0,.72,0,1.44,0,2.15s0,1.21,0,1.81a27.48,27.48,0,0,0,.35,4,13.36,13.36,0,0,0,1.23,3.74,12.65,12.65,0,0,0,5.51,5.51,13.44,13.44,0,0,0,3.75,1.24,26,26,0,0,0,3.94.34c.6,0,1.21,0,1.81,0h26.76c.61,0,1.21,0,1.81,0a26,26,0,0,0,3.94-.34,13.44,13.44,0,0,0,3.75-1.24,12.65,12.65,0,0,0,5.51-5.51,13,13,0,0,0,1.23-3.74,26.12,26.12,0,0,0,.35-4c0-.6,0-1.2,0-1.81V217.43Z"/><path class="h" d="M376.16,217.43v-2.15c0-.6,0-1.2,0-1.81a26.1,26.1,0,0,0-.35-3.94,13.1,13.1,0,0,0-1.23-3.75,13,13,0,0,0-2.32-3.19,12.57,12.57,0,0,0-3.19-2.31,13.44,13.44,0,0,0-3.75-1.24,27.34,27.34,0,0,0-3.94-.35l-1.81,0H332.78l-1.81,0A27.34,27.34,0,0,0,327,199a13.44,13.44,0,0,0-3.75,1.24,12.75,12.75,0,0,0-3.19,2.31,13,13,0,0,0-2.32,3.19,13.42,13.42,0,0,0-1.23,3.75,26.1,26.1,0,0,0-.35,3.94c0,.61,0,1.21,0,1.81s0,1.44,0,2.15v22.46c0,.72,0,1.44,0,2.15s0,1.21,0,1.81a26.12,26.12,0,0,0,.35,4,13.36,13.36,0,0,0,1.23,3.74,12.65,12.65,0,0,0,5.51,5.51,13.44,13.44,0,0,0,3.75,1.24,26,26,0,0,0,3.94.34c.6,0,1.21,0,1.81,0h26.76c.61,0,1.21,0,1.81,0a26,26,0,0,0,3.94-.34,13.44,13.44,0,0,0,3.75-1.24,12.37,12.37,0,0,0,3.19-2.32,12.61,12.61,0,0,0,2.32-3.19,13,13,0,0,0,1.23-3.74,26.12,26.12,0,0,0,.35-4c0-.6,0-1.2,0-1.81V217.43Z"/>
<path class="c" d="M58.3,170.4c.11.82.9,1.34,2,1.34s1.83-.55,1.83-1.33-.5-1.07-1.61-1.34l-1.09-.26c-1.53-.37-2.23-1.1-2.23-2.33,0-1.49,1.23-2.48,3.07-2.48s3,1,3.05,2.41H62.07a1.61,1.61,0,0,0-1.78-1.3c-1,0-1.73.51-1.73,1.3,0,.62.44,1,1.55,1.24l.93.23c1.73.41,2.45,1.11,2.45,2.38,0,1.6-1.26,2.6-3.26,2.6s-3.14-1-3.23-2.46Z"/><path class="c" d="M71,169.48c0,2-1,3.28-2.64,3.28a2.09,2.09,0,0,1-2-1.06h-.1v3.08H65.06v-8.49h1.22v1.06h.09a2.23,2.23,0,0,1,2-1.17C70,166.18,71,167.45,71,169.48Zm-1.29,0c0-1.39-.64-2.22-1.71-2.22s-1.72.85-1.72,2.22.66,2.21,1.72,2.21S69.73,170.86,69.73,169.48Z"/><path class="c" d="M72.22,169.48c0-2,1.15-3.31,3-3.31s3,1.25,3,3.31-1.14,3.3-3,3.3S72.22,171.53,72.22,169.48Zm4.72,0c0-1.42-.62-2.24-1.71-2.24s-1.71.82-1.71,2.24.61,2.23,1.71,2.23S76.94,170.89,76.94,169.48Z"/><path class="c" d="M81.45,164.69v1.62h1.38v1H81.45v3.36c0,.68.28,1,.9,1a3.53,3.53,0,0,0,.48,0v1a3.55,3.55,0,0,1-.68.07c-1.4,0-2-.49-2-1.72v-3.66h-1v-1h1v-1.62Z"/><path class="c" d="M84.17,164.37a.8.8,0,0,1,.8-.8.8.8,0,1,1-.8.8Zm.17,1.92h1.25v6.37H84.34Z"/><path class="c" d="M87.9,167.32H86.85v-1H87.9v-.68c0-1.27.64-1.89,2-1.89a4.22,4.22,0,0,1,.75.06v.95a3.19,3.19,0,0,0-.49,0c-.7,0-1,.32-1,1v.62h1.42v1h-1.4v5.34H87.9Z"/><path class="c" d="M92.1,174.94v-1l.41,0a1.08,1.08,0,0,0,1.15-.93l.1-.32-2.31-6.39h1.37l1.6,5.1h.1l1.59-5.1h1.34L95.07,173c-.55,1.53-1.15,2-2.45,2Z"/><path class="c" d="M102.23,172.32h-1.15v-2.45H98.75v-1.14h2.33v-2.44h1.15v2.44h2.34v1.14h-2.34Z"/><path class="c" d="M110.2,172.32H109v-2.45h-2.32v-1.14H109v-2.44h1.16v2.44h2.33v1.14H110.2Z"/><path class="j" d="M99.12,124c-7.58-4.5-20.09-4.92-27.33-2.72a2.2,2.2,0,1,1-1.28-4.21c8.31-2.53,22.13-2,30.86,3.14A2.2,2.2,0,0,1,99.12,124Zm-.25,6.67a1.83,1.83,0,0,1-2.52.6c-6.32-3.88-16-5-23.44-2.74A1.83,1.83,0,0,1,71.84,125c8.54-2.59,19.17-1.33,26.43,3.13a1.83,1.83,0,0,1,.6,2.52ZM96,137.09a1.45,1.45,0,0,1-2,.48c-5.53-3.37-12.48-4.13-20.67-2.26a1.47,1.47,0,1,1-.65-2.86c9-2,16.65-1.17,22.85,2.62a1.46,1.46,0,0,1,.48,2ZM85.2,103.15a23.53,23.53,0,1,0,23.53,23.53A23.53,23.53,0,0,0,85.2,103.15Z"/></svg>
